G04 ================== begin FILE IDENTIFICATION RECORD ==================*
G04 Layout Name:  GroundBounce.brd*
G04 Film Name:    Ground_Bounce_v1_SST*
G04 File Format:  Gerber RS274X*
G04 File Origin:  Cadence Allegro 17.4-S013*
G04 Origin Date:  Wed Jun  1 16:49:26 2022*
G04 *
G04 Layer:  REF DES/SILKSCREEN_TOP*
G04 Layer:  PACKAGE GEOMETRY/SILKSCREEN_TOP*
G04 Layer:  BOARD GEOMETRY/SILKSCREEN_TOP*
G04 *
G04 Offset:    (0.0 0.0)*
G04 Mirror:    No*
G04 Mode:      Positive*
G04 Rotation:  0*
G04 FullContactRelief:  No*
G04 UndefLineWidth:     0.0*
G04 ================== end FILE IDENTIFICATION RECORD ====================*
%FSLAX25Y25*MOIN*%
%IR0*IPPOS*OFA0.00000B0.00000*MIA0B0*SFA1.00000B1.00000*%
%ADD10C,.005*%
%ADD11C,.006*%
%ADD12C,.007*%
%ADD13C,.008*%
%ADD14C,.0079*%
%ADD15C,.01*%
G75*
%LPD*%
G75*
G54D10*
G01X76900Y190000D02*
Y195000D01*
X76140Y194000D01*
G01Y190000D02*
X77660D01*
G01X76790Y245580D02*
X76410Y245830D01*
X75970Y246000D01*
X75460D01*
X74890Y245750D01*
X74450Y245330D01*
X74130Y244830D01*
X73880Y244000D01*
X73820Y243250D01*
X73940Y242500D01*
X74130Y242000D01*
X74510Y241500D01*
X74960Y241170D01*
X75400Y241000D01*
X75840D01*
X76290Y241170D01*
X76670Y241420D01*
X76980Y241750D01*
G01X80370Y241000D02*
X80500Y242080D01*
X80690Y243000D01*
X80940Y243830D01*
X81260Y244750D01*
X81770Y246000D01*
X79230D01*
G01X74130Y352000D02*
X74450Y351500D01*
X74830Y351170D01*
X75270Y351000D01*
X75780Y351170D01*
X76160Y351500D01*
X76540Y352000D01*
X76670Y352670D01*
Y356000D01*
G01X80370Y351000D02*
X80500Y352080D01*
X80690Y353000D01*
X80940Y353830D01*
X81260Y354750D01*
X81770Y356000D01*
X79230D01*
G01X106790Y76580D02*
X106410Y76830D01*
X105970Y77000D01*
X105460D01*
X104890Y76750D01*
X104450Y76330D01*
X104130Y75830D01*
X103880Y75000D01*
X103820Y74250D01*
X103940Y73500D01*
X104130Y73000D01*
X104510Y72500D01*
X104960Y72170D01*
X105400Y72000D01*
X105840D01*
X106290Y72170D01*
X106670Y72420D01*
X106980Y72750D01*
G01X110500Y72000D02*
Y77000D01*
X109740Y76000D01*
G01Y72000D02*
X111260D01*
G01X104130Y109000D02*
X104450Y108500D01*
X104830Y108170D01*
X105270Y108000D01*
X105780Y108170D01*
X106160Y108500D01*
X106540Y109000D01*
X106670Y109670D01*
Y113000D01*
G01X110500Y108000D02*
Y113000D01*
X109740Y112000D01*
G01Y108000D02*
X111260D01*
G01X99400Y96500D02*
Y101500D01*
X98640Y100500D01*
G01Y96500D02*
X100160D01*
G01X88790Y172580D02*
X88410Y172830D01*
X87970Y173000D01*
X87460D01*
X86890Y172750D01*
X86450Y172330D01*
X86130Y171830D01*
X85880Y171000D01*
X85820Y170250D01*
X85940Y169500D01*
X86130Y169000D01*
X86510Y168500D01*
X86960Y168170D01*
X87400Y168000D01*
X87840D01*
X88290Y168170D01*
X88670Y168420D01*
X88980Y168750D01*
G01X91300Y170080D02*
X91740Y170670D01*
X92120Y171000D01*
X92630Y171170D01*
X93070Y171000D01*
X93390Y170670D01*
X93640Y170170D01*
X93700Y169580D01*
X93640Y169080D01*
X93390Y168580D01*
X93010Y168170D01*
X92560Y168000D01*
X92060Y168170D01*
X91610Y168670D01*
X91360Y169420D01*
X91300Y170250D01*
X91420Y171330D01*
X91610Y171920D01*
X91930Y172500D01*
X92370Y172920D01*
X92820Y173000D01*
X93260Y172830D01*
X93580Y172420D01*
G01X86130Y202000D02*
X86450Y201500D01*
X86830Y201170D01*
X87270Y201000D01*
X87780Y201170D01*
X88160Y201500D01*
X88540Y202000D01*
X88670Y202670D01*
Y206000D01*
G01X91300Y203080D02*
X91740Y203670D01*
X92120Y204000D01*
X92630Y204170D01*
X93070Y204000D01*
X93390Y203670D01*
X93640Y203170D01*
X93700Y202580D01*
X93640Y202080D01*
X93390Y201580D01*
X93010Y201170D01*
X92560Y201000D01*
X92060Y201170D01*
X91610Y201670D01*
X91360Y202420D01*
X91300Y203250D01*
X91420Y204330D01*
X91610Y204920D01*
X91930Y205500D01*
X92370Y205920D01*
X92820Y206000D01*
X93260Y205830D01*
X93580Y205420D01*
G01X108290Y233080D02*
X107910Y233330D01*
X107470Y233500D01*
X106960D01*
X106390Y233250D01*
X105950Y232830D01*
X105630Y232330D01*
X105380Y231500D01*
X105320Y230750D01*
X105440Y230000D01*
X105630Y229500D01*
X106010Y229000D01*
X106460Y228670D01*
X106900Y228500D01*
X107340D01*
X107790Y228670D01*
X108170Y228920D01*
X108480Y229250D01*
G01X112000Y228500D02*
X112440Y228580D01*
X112950Y228830D01*
X113270Y229250D01*
X113390Y229830D01*
X113270Y230420D01*
X112890Y230920D01*
X112320Y231170D01*
X111680D01*
X111300Y231330D01*
X110990Y231750D01*
X110860Y232330D01*
X111050Y232920D01*
X111490Y233330D01*
X112000Y233500D01*
X112510Y233330D01*
X112950Y232920D01*
X113140Y232330D01*
X113010Y231750D01*
X112700Y231330D01*
X112320Y231170D01*
X111680D01*
X111110Y230920D01*
X110730Y230420D01*
X110610Y229830D01*
X110730Y229250D01*
X111050Y228830D01*
X111560Y228580D01*
X112000Y228500D01*
G01X91900Y340500D02*
Y345500D01*
X91140Y344500D01*
G01Y340500D02*
X92660D01*
G01X111630Y142500D02*
Y147500D01*
X113220D01*
X113720Y147250D01*
X114040Y146920D01*
X114170Y146250D01*
X114040Y145580D01*
X113660Y145170D01*
X113220Y144920D01*
X111630D01*
G01X113220D02*
X114170Y142500D01*
G01X116610Y143500D02*
X116990Y142920D01*
X117490Y142580D01*
X118060Y142500D01*
X118570Y142580D01*
X119080Y143000D01*
X119390Y143500D01*
X119460Y144000D01*
X119330Y144580D01*
X118890Y145000D01*
X118440Y145170D01*
X117870D01*
G01X118440D02*
X118820Y145420D01*
X119140Y145830D01*
X119270Y146330D01*
X119140Y146830D01*
X118820Y147250D01*
X118250Y147500D01*
X117680Y147420D01*
X117110Y147080D01*
G01X126630Y181500D02*
Y186500D01*
X128220D01*
X128720Y186250D01*
X129040Y185920D01*
X129170Y185250D01*
X129040Y184580D01*
X128660Y184170D01*
X128220Y183920D01*
X126630D01*
G01X128220D02*
X129170Y181500D01*
G01X131800Y185670D02*
X132180Y186170D01*
X132620Y186420D01*
X133130Y186500D01*
X133760Y186330D01*
X134200Y185920D01*
X134330Y185420D01*
X134270Y184920D01*
X134010Y184500D01*
X132750Y183670D01*
X132180Y183080D01*
X131800Y182250D01*
X131670Y181500D01*
X134330D01*
G01X153290Y76580D02*
X152910Y76830D01*
X152470Y77000D01*
X151960D01*
X151390Y76750D01*
X150950Y76330D01*
X150630Y75830D01*
X150380Y75000D01*
X150320Y74250D01*
X150440Y73500D01*
X150630Y73000D01*
X151010Y72500D01*
X151460Y72170D01*
X151900Y72000D01*
X152340D01*
X152790Y72170D01*
X153170Y72420D01*
X153480Y72750D01*
G01X155800Y76170D02*
X156180Y76670D01*
X156620Y76920D01*
X157130Y77000D01*
X157760Y76830D01*
X158200Y76420D01*
X158330Y75920D01*
X158270Y75420D01*
X158010Y75000D01*
X156750Y74170D01*
X156180Y73580D01*
X155800Y72750D01*
X155670Y72000D01*
X158330D01*
G01X162630Y109000D02*
X162950Y108500D01*
X163330Y108170D01*
X163770Y108000D01*
X164280Y108170D01*
X164660Y108500D01*
X165040Y109000D01*
X165170Y109670D01*
Y113000D01*
G01X167800Y112170D02*
X168180Y112670D01*
X168620Y112920D01*
X169130Y113000D01*
X169760Y112830D01*
X170200Y112420D01*
X170330Y111920D01*
X170270Y111420D01*
X170010Y111000D01*
X168750Y110170D01*
X168180Y109580D01*
X167800Y108750D01*
X167670Y108000D01*
X170330D01*
G01X145900Y96500D02*
Y101500D01*
X145140Y100500D01*
G01Y96500D02*
X146660D01*
G01X198290Y76580D02*
X197910Y76830D01*
X197470Y77000D01*
X196960D01*
X196390Y76750D01*
X195950Y76330D01*
X195630Y75830D01*
X195380Y75000D01*
X195320Y74250D01*
X195440Y73500D01*
X195630Y73000D01*
X196010Y72500D01*
X196460Y72170D01*
X196900Y72000D01*
X197340D01*
X197790Y72170D01*
X198170Y72420D01*
X198480Y72750D01*
G01X200610Y73000D02*
X200990Y72420D01*
X201490Y72080D01*
X202060Y72000D01*
X202570Y72080D01*
X203080Y72500D01*
X203390Y73000D01*
X203460Y73500D01*
X203330Y74080D01*
X202890Y74500D01*
X202440Y74670D01*
X201870D01*
G01X202440D02*
X202820Y74920D01*
X203140Y75330D01*
X203270Y75830D01*
X203140Y76330D01*
X202820Y76750D01*
X202250Y77000D01*
X201680Y76920D01*
X201110Y76580D01*
G01X191400Y96500D02*
Y101500D01*
X190640Y100500D01*
G01Y96500D02*
X192160D01*
G01X203130Y109000D02*
X203450Y108500D01*
X203830Y108170D01*
X204270Y108000D01*
X204780Y108170D01*
X205160Y108500D01*
X205540Y109000D01*
X205670Y109670D01*
Y113000D01*
G01X208110Y109000D02*
X208490Y108420D01*
X208990Y108080D01*
X209560Y108000D01*
X210070Y108080D01*
X210580Y108500D01*
X210890Y109000D01*
X210960Y109500D01*
X210830Y110080D01*
X210390Y110500D01*
X209940Y110670D01*
X209370D01*
G01X209940D02*
X210320Y110920D01*
X210640Y111330D01*
X210770Y111830D01*
X210640Y112330D01*
X210320Y112750D01*
X209750Y113000D01*
X209180Y112920D01*
X208610Y112580D01*
G01X244790Y76580D02*
X244410Y76830D01*
X243970Y77000D01*
X243460D01*
X242890Y76750D01*
X242450Y76330D01*
X242130Y75830D01*
X241880Y75000D01*
X241820Y74250D01*
X241940Y73500D01*
X242130Y73000D01*
X242510Y72500D01*
X242960Y72170D01*
X243400Y72000D01*
X243840D01*
X244290Y72170D01*
X244670Y72420D01*
X244980Y72750D01*
G01X249260Y72000D02*
Y77000D01*
X246920Y73420D01*
X250080D01*
G01X249630Y109000D02*
X249950Y108500D01*
X250330Y108170D01*
X250770Y108000D01*
X251280Y108170D01*
X251660Y108500D01*
X252040Y109000D01*
X252170Y109670D01*
Y113000D01*
G01X256760Y108000D02*
Y113000D01*
X254420Y109420D01*
X257580D01*
G01X236900Y96500D02*
Y101500D01*
X236140Y100500D01*
G01Y96500D02*
X237660D01*
G01X241790Y186080D02*
X241410Y186330D01*
X240970Y186500D01*
X240460D01*
X239890Y186250D01*
X239450Y185830D01*
X239130Y185330D01*
X238880Y184500D01*
X238820Y183750D01*
X238940Y183000D01*
X239130Y182500D01*
X239510Y182000D01*
X239960Y181670D01*
X240400Y181500D01*
X240840D01*
X241290Y181670D01*
X241670Y181920D01*
X241980Y182250D01*
G01X245500Y181500D02*
Y186500D01*
X244740Y185500D01*
G01Y181500D02*
X246260D01*
G01X250600Y186500D02*
X250090Y186330D01*
X249710Y185920D01*
X249460Y185420D01*
X249270Y184750D01*
X249210Y184000D01*
X249270Y183250D01*
X249460Y182580D01*
X249710Y182080D01*
X250090Y181670D01*
X250600Y181500D01*
X251110Y181670D01*
X251490Y182080D01*
X251740Y182580D01*
X251930Y183250D01*
X251990Y184000D01*
X251930Y184750D01*
X251740Y185420D01*
X251490Y185920D01*
X251110Y186330D01*
X250600Y186500D01*
G01X237290Y256580D02*
X236910Y256830D01*
X236470Y257000D01*
X235960D01*
X235390Y256750D01*
X234950Y256330D01*
X234630Y255830D01*
X234380Y255000D01*
X234320Y254250D01*
X234440Y253500D01*
X234630Y253000D01*
X235010Y252500D01*
X235460Y252170D01*
X235900Y252000D01*
X236340D01*
X236790Y252170D01*
X237170Y252420D01*
X237480Y252750D01*
G01X239920Y252580D02*
X240370Y252170D01*
X240870Y252000D01*
X241380Y252170D01*
X241820Y252670D01*
X242140Y253420D01*
X242270Y254170D01*
Y255080D01*
X242140Y255830D01*
X241820Y256500D01*
X241440Y256830D01*
X241000Y257000D01*
X240490Y256830D01*
X240110Y256500D01*
X239860Y256000D01*
X239730Y255330D01*
X239860Y254750D01*
X240180Y254170D01*
X240560Y253830D01*
X241000Y253750D01*
X241510Y253920D01*
X241890Y254330D01*
X242270Y255080D01*
G01X288290Y76580D02*
X287910Y76830D01*
X287470Y77000D01*
X286960D01*
X286390Y76750D01*
X285950Y76330D01*
X285630Y75830D01*
X285380Y75000D01*
X285320Y74250D01*
X285440Y73500D01*
X285630Y73000D01*
X286010Y72500D01*
X286460Y72170D01*
X286900Y72000D01*
X287340D01*
X287790Y72170D01*
X288170Y72420D01*
X288480Y72750D01*
G01X290610D02*
X290990Y72330D01*
X291430Y72080D01*
X292000Y72000D01*
X292570Y72170D01*
X293010Y72500D01*
X293330Y73080D01*
X293390Y73750D01*
X293270Y74420D01*
X292950Y74830D01*
X292510Y75170D01*
X292060Y75250D01*
X291620Y75170D01*
X291050Y74830D01*
X291240Y77000D01*
X292950D01*
G01X280900Y96500D02*
Y101500D01*
X280140Y100500D01*
G01Y96500D02*
X281660D01*
G01X293130Y109000D02*
X293450Y108500D01*
X293830Y108170D01*
X294270Y108000D01*
X294780Y108170D01*
X295160Y108500D01*
X295540Y109000D01*
X295670Y109670D01*
Y113000D01*
G01X298110Y108750D02*
X298490Y108330D01*
X298930Y108080D01*
X299500Y108000D01*
X300070Y108170D01*
X300510Y108500D01*
X300830Y109080D01*
X300890Y109750D01*
X300770Y110420D01*
X300450Y110830D01*
X300010Y111170D01*
X299560Y111250D01*
X299120Y111170D01*
X298550Y110830D01*
X298740Y113000D01*
X300450D01*
G01X343130Y202500D02*
Y207500D01*
X344720D01*
X345220Y207250D01*
X345540Y206920D01*
X345670Y206250D01*
X345540Y205580D01*
X345160Y205170D01*
X344720Y204920D01*
X343130D01*
G01X344720D02*
X345670Y202500D01*
G01X349500D02*
Y207500D01*
X348740Y206500D01*
G01Y202500D02*
X350260D01*
G54D11*
G01X96750Y166300D02*
Y182300D01*
G01X104250D02*
Y166300D01*
G01D02*
X96750D01*
G01X123200Y150250D02*
X107200D01*
G01D02*
Y157750D01*
G01D02*
X123200D01*
G01X96750Y182300D02*
X104250D01*
G01X86250Y237800D02*
Y253800D01*
G01D02*
X93750D01*
G01D02*
Y237800D01*
G01D02*
X86250D01*
G01X107800Y243750D02*
X123800D01*
G01Y236250D02*
X107800D01*
G01D02*
Y243750D01*
G01X113750Y66800D02*
Y82800D01*
G01X121250D02*
Y66800D01*
G01D02*
X113750D01*
G01Y82800D02*
X121250D01*
G01X123750Y182200D02*
Y166200D01*
G01D02*
X116250D01*
G01D02*
Y182200D01*
G01X123200Y157750D02*
Y150250D01*
G01X116250Y182200D02*
X123750D01*
G01X123800Y243750D02*
Y236250D01*
G01X160250Y66800D02*
Y82800D01*
G01X167750D02*
Y66800D01*
G01D02*
X160250D01*
G01Y82800D02*
X167750D01*
G01X205750Y66800D02*
Y82800D01*
G01X213250D02*
Y66800D01*
G01D02*
X205750D01*
G01Y82800D02*
X213250D01*
G01X244700Y171250D02*
X228700D01*
G01D02*
Y178750D01*
G01D02*
X244700D01*
G01Y241250D02*
X228700D01*
G01D02*
Y248750D01*
G01D02*
X244700D01*
G01X251250Y66800D02*
Y82800D01*
G01X258750D02*
Y66800D01*
G01D02*
X251250D01*
G01Y82800D02*
X258750D01*
G01X244700Y178750D02*
Y171250D01*
G01Y248750D02*
Y241250D01*
G01X295250Y66800D02*
Y82800D01*
G01X302750D02*
Y66800D01*
G01D02*
X295250D01*
G01Y82800D02*
X302750D01*
G01X357200Y191250D02*
X341200D01*
G01D02*
Y198750D01*
G01D02*
X357200D01*
G01D02*
Y191250D01*
G54D12*
G01X228630Y316000D02*
X228950Y315500D01*
X229330Y315170D01*
X229770Y315000D01*
X230280Y315170D01*
X230660Y315500D01*
X231040Y316000D01*
X231170Y316670D01*
Y320000D01*
G01X236140Y315000D02*
Y318330D01*
G01Y317750D02*
X235890Y318080D01*
X235510Y318250D01*
X235060Y318330D01*
X234620Y318170D01*
X234240Y317830D01*
X233990Y317330D01*
X233860Y316670D01*
X233990Y316000D01*
X234240Y315500D01*
X234620Y315170D01*
X235060Y315000D01*
X235510Y315080D01*
X235890Y315330D01*
X236140Y315670D01*
G01X238200Y315000D02*
Y318330D01*
G01Y317420D02*
X238390Y317830D01*
X238710Y318170D01*
X239150Y318330D01*
X239590Y318170D01*
X239910Y317830D01*
X240100Y317420D01*
Y315000D01*
G01Y317420D02*
X240290Y317830D01*
X240610Y318170D01*
X241050Y318330D01*
X241490Y318170D01*
X241810Y317830D01*
X242000Y317330D01*
Y315000D01*
G01X244250Y317250D02*
X246280D01*
X246090Y317830D01*
X245770Y318170D01*
X245330Y318330D01*
X244880Y318250D01*
X244500Y318000D01*
X244250Y317420D01*
X244120Y316920D01*
Y316420D01*
X244250Y315920D01*
X244570Y315420D01*
X244950Y315080D01*
X245390Y315000D01*
X245830Y315170D01*
X246280Y315670D01*
G01X249350Y315580D02*
X249670Y315250D01*
X250110Y315000D01*
X250490D01*
X250870Y315170D01*
X251120Y315420D01*
X251250Y315750D01*
X251190Y316250D01*
X250930Y316500D01*
X249790Y317000D01*
X249540Y317580D01*
X249670Y318000D01*
X249920Y318250D01*
X250300Y318330D01*
X250680Y318250D01*
X251060Y318000D01*
G01X261770Y315000D02*
X259230D01*
Y320000D01*
X261770D01*
G01X260750Y317580D02*
X259230D01*
G01X264520Y315000D02*
Y318330D01*
G01Y317500D02*
X264780Y317920D01*
X265160Y318250D01*
X265660Y318330D01*
X266110Y318250D01*
X266490Y317920D01*
X266680Y317330D01*
Y315000D01*
G01X269750Y315580D02*
X270070Y315250D01*
X270510Y315000D01*
X270890D01*
X271270Y315170D01*
X271520Y315420D01*
X271650Y315750D01*
X271590Y316250D01*
X271330Y316500D01*
X270190Y317000D01*
X269940Y317580D01*
X270070Y318000D01*
X270320Y318250D01*
X270700Y318330D01*
X271080Y318250D01*
X271460Y318000D01*
G01X273900Y315000D02*
Y318330D01*
G01Y317420D02*
X274090Y317830D01*
X274410Y318170D01*
X274850Y318330D01*
X275290Y318170D01*
X275610Y317830D01*
X275800Y317420D01*
Y315000D01*
G01Y317420D02*
X275990Y317830D01*
X276310Y318170D01*
X276750Y318330D01*
X277190Y318170D01*
X277510Y317830D01*
X277700Y317330D01*
Y315000D01*
G01X280900Y318330D02*
Y315000D01*
G01Y319670D02*
X280770Y319750D01*
Y319920D01*
X280900Y320000D01*
X281030Y319920D01*
Y319750D01*
X280900Y319670D01*
G01X284920Y315000D02*
Y318330D01*
G01Y317500D02*
X285180Y317920D01*
X285560Y318250D01*
X286060Y318330D01*
X286510Y318250D01*
X286890Y317920D01*
X287080Y317330D01*
Y315000D01*
G01X290210Y313750D02*
X290660Y313420D01*
X291160Y313330D01*
X291610Y313420D01*
X291990Y313830D01*
X292240Y314420D01*
Y318330D01*
G01Y317670D02*
X291990Y318000D01*
X291610Y318250D01*
X291160Y318330D01*
X290660Y318170D01*
X290340Y317830D01*
X290090Y317250D01*
X289960Y316670D01*
X290020Y316170D01*
X290280Y315580D01*
X290660Y315170D01*
X291160Y315000D01*
X291540Y315080D01*
X291990Y315420D01*
X292240Y315750D01*
G01X295250Y317250D02*
X297280D01*
X297090Y317830D01*
X296770Y318170D01*
X296330Y318330D01*
X295880Y318250D01*
X295500Y318000D01*
X295250Y317420D01*
X295120Y316920D01*
Y316420D01*
X295250Y315920D01*
X295570Y315420D01*
X295950Y315080D01*
X296390Y315000D01*
X296830Y315170D01*
X297280Y315670D01*
G01X300410Y315000D02*
Y318330D01*
G01Y317670D02*
X300730Y318000D01*
X301050Y318250D01*
X301490Y318330D01*
X301810Y318250D01*
X302190Y318000D01*
G01X230130Y342500D02*
Y337500D01*
X232670D01*
G01X237640D02*
Y340830D01*
G01Y340250D02*
X237390Y340580D01*
X237010Y340750D01*
X236560Y340830D01*
X236120Y340670D01*
X235740Y340330D01*
X235490Y339830D01*
X235360Y339170D01*
X235490Y338500D01*
X235740Y338000D01*
X236120Y337670D01*
X236560Y337500D01*
X237010Y337580D01*
X237390Y337830D01*
X237640Y338170D01*
G01X240460Y337500D02*
Y342500D01*
G01Y340000D02*
X240780Y340500D01*
X241160Y340750D01*
X241540Y340830D01*
X242110Y340670D01*
X242490Y340330D01*
X242740Y339750D01*
Y339080D01*
X242610Y338420D01*
X242360Y337920D01*
X241920Y337580D01*
X241540Y337500D01*
X241160Y337580D01*
X240780Y337830D01*
X240460Y338250D01*
G01X247460Y337500D02*
Y342500D01*
X245120Y338920D01*
X248280D01*
G01X257280Y340000D02*
X258550D01*
Y338500D01*
X258170Y338000D01*
X257720Y337670D01*
X257090Y337500D01*
X256460Y337670D01*
X256010Y338000D01*
X255630Y338500D01*
X255380Y339080D01*
X255250Y339750D01*
Y340330D01*
X255380Y340830D01*
X255630Y341420D01*
X256010Y341920D01*
X256390Y342250D01*
X256900Y342500D01*
X257340D01*
X257850Y342330D01*
X258230Y342000D01*
G01X261110Y337500D02*
Y340830D01*
G01Y340170D02*
X261430Y340500D01*
X261750Y340750D01*
X262190Y340830D01*
X262510Y340750D01*
X262890Y340500D01*
G01X267100Y337500D02*
X266720Y337580D01*
X266340Y337920D01*
X266090Y338500D01*
X265960Y339170D01*
X266090Y339830D01*
X266340Y340420D01*
X266720Y340750D01*
X267100Y340830D01*
X267480Y340750D01*
X267860Y340420D01*
X268110Y339830D01*
X268180Y339170D01*
X268110Y338500D01*
X267860Y337920D01*
X267480Y337580D01*
X267100Y337500D01*
G01X271120Y340830D02*
Y338500D01*
X271380Y337920D01*
X271760Y337580D01*
X272200Y337500D01*
X272640Y337580D01*
X273020Y337920D01*
X273280Y338500D01*
G01Y337500D02*
Y340830D01*
G01X276220Y337500D02*
Y340830D01*
G01Y340000D02*
X276480Y340420D01*
X276860Y340750D01*
X277360Y340830D01*
X277810Y340750D01*
X278190Y340420D01*
X278380Y339830D01*
Y337500D01*
G01X283540Y342500D02*
Y337500D01*
G01Y338250D02*
X283290Y337830D01*
X282910Y337580D01*
X282460Y337500D01*
X281960Y337670D01*
X281580Y338080D01*
X281320Y338580D01*
X281260Y339170D01*
X281320Y339750D01*
X281580Y340250D01*
X281960Y340670D01*
X282460Y340830D01*
X282910Y340750D01*
X283220Y340580D01*
X283540Y340250D01*
G01X293110Y340170D02*
X293360Y340420D01*
X293550Y340830D01*
X293680Y341420D01*
X293550Y341920D01*
X293300Y342250D01*
X292850Y342500D01*
X291140D01*
Y337500D01*
X293230D01*
X293680Y337830D01*
X293930Y338330D01*
X294060Y338920D01*
X293930Y339500D01*
X293550Y340000D01*
X293110Y340170D01*
X291140D01*
G01X297700Y337500D02*
X297320Y337580D01*
X296940Y337920D01*
X296690Y338500D01*
X296560Y339170D01*
X296690Y339830D01*
X296940Y340420D01*
X297320Y340750D01*
X297700Y340830D01*
X298080Y340750D01*
X298460Y340420D01*
X298710Y339830D01*
X298780Y339170D01*
X298710Y338500D01*
X298460Y337920D01*
X298080Y337580D01*
X297700Y337500D01*
G01X301720Y340830D02*
Y338500D01*
X301980Y337920D01*
X302360Y337580D01*
X302800Y337500D01*
X303240Y337580D01*
X303620Y337920D01*
X303880Y338500D01*
G01Y337500D02*
Y340830D01*
G01X306820Y337500D02*
Y340830D01*
G01Y340000D02*
X307080Y340420D01*
X307460Y340750D01*
X307960Y340830D01*
X308410Y340750D01*
X308790Y340420D01*
X308980Y339830D01*
Y337500D01*
G01X314010Y340420D02*
X313570Y340750D01*
X313190Y340830D01*
X312680Y340670D01*
X312300Y340330D01*
X312050Y339750D01*
X311990Y339170D01*
X312050Y338580D01*
X312300Y338080D01*
X312680Y337670D01*
X313190Y337500D01*
X313630Y337670D01*
X314010Y338000D01*
G01X317150Y339750D02*
X319180D01*
X318990Y340330D01*
X318670Y340670D01*
X318230Y340830D01*
X317780Y340750D01*
X317400Y340500D01*
X317150Y339920D01*
X317020Y339420D01*
Y338920D01*
X317150Y338420D01*
X317470Y337920D01*
X317850Y337580D01*
X318290Y337500D01*
X318730Y337670D01*
X319180Y338170D01*
G01X231170Y325500D02*
X228630D01*
Y330500D01*
X231170D01*
G01X230150Y328080D02*
X228630D01*
G01X236390Y330080D02*
X236010Y330330D01*
X235570Y330500D01*
X235060D01*
X234490Y330250D01*
X234050Y329830D01*
X233730Y329330D01*
X233480Y328500D01*
X233420Y327750D01*
X233540Y327000D01*
X233730Y326500D01*
X234110Y326000D01*
X234560Y325670D01*
X235000Y325500D01*
X235440D01*
X235890Y325670D01*
X236270Y325920D01*
X236580Y326250D01*
G01X241370Y325500D02*
X238830D01*
Y330500D01*
X241370D01*
G01X240350Y328080D02*
X238830D01*
G01X245200Y325500D02*
Y330500D01*
X244440Y329500D01*
G01Y325500D02*
X245960D01*
G01X250170D02*
X250300Y326580D01*
X250490Y327500D01*
X250740Y328330D01*
X251060Y329250D01*
X251570Y330500D01*
X249030D01*
G01X254010Y326500D02*
X254390Y325920D01*
X254890Y325580D01*
X255460Y325500D01*
X255970Y325580D01*
X256480Y326000D01*
X256790Y326500D01*
X256860Y327000D01*
X256730Y327580D01*
X256290Y328000D01*
X255840Y328170D01*
X255270D01*
G01X255840D02*
X256220Y328420D01*
X256540Y328830D01*
X256670Y329330D01*
X256540Y329830D01*
X256220Y330250D01*
X255650Y330500D01*
X255080Y330420D01*
X254510Y330080D01*
G01X264270Y326170D02*
X264780Y325750D01*
X265350Y325500D01*
X265850D01*
X266360Y325750D01*
X266740Y326170D01*
X266930Y326750D01*
X266800Y327330D01*
X266490Y327830D01*
X265920Y328170D01*
X265160Y328330D01*
X264710Y328670D01*
X264520Y329250D01*
X264650Y329830D01*
X264970Y330250D01*
X265410Y330500D01*
X265850D01*
X266300Y330330D01*
X266680Y329920D01*
G01X269500Y329670D02*
X269880Y330170D01*
X270320Y330420D01*
X270830Y330500D01*
X271460Y330330D01*
X271900Y329920D01*
X272030Y329420D01*
X271970Y328920D01*
X271710Y328500D01*
X270450Y327670D01*
X269880Y327080D01*
X269500Y326250D01*
X269370Y325500D01*
X272030D01*
G01X275800Y330500D02*
X275290Y330330D01*
X274910Y329920D01*
X274660Y329420D01*
X274470Y328750D01*
X274410Y328000D01*
X274470Y327250D01*
X274660Y326580D01*
X274910Y326080D01*
X275290Y325670D01*
X275800Y325500D01*
X276310Y325670D01*
X276690Y326080D01*
X276940Y326580D01*
X277130Y327250D01*
X277190Y328000D01*
X277130Y328750D01*
X276940Y329420D01*
X276690Y329920D01*
X276310Y330330D01*
X275800Y330500D01*
G01X279700Y329670D02*
X280080Y330170D01*
X280520Y330420D01*
X281030Y330500D01*
X281660Y330330D01*
X282100Y329920D01*
X282230Y329420D01*
X282170Y328920D01*
X281910Y328500D01*
X280650Y327670D01*
X280080Y327080D01*
X279700Y326250D01*
X279570Y325500D01*
X282230D01*
G01X284800Y329670D02*
X285180Y330170D01*
X285620Y330420D01*
X286130Y330500D01*
X286760Y330330D01*
X287200Y329920D01*
X287330Y329420D01*
X287270Y328920D01*
X287010Y328500D01*
X285750Y327670D01*
X285180Y327080D01*
X284800Y326250D01*
X284670Y325500D01*
X287330D01*
G01X295060Y328830D02*
X296200Y325500D01*
X297340Y328830D01*
G01X301300Y325500D02*
Y330500D01*
X300540Y329500D01*
G01Y325500D02*
X302060D01*
G01X306400Y325330D02*
X306270Y325420D01*
Y325580D01*
X306400Y325670D01*
X306530Y325580D01*
Y325420D01*
X306400Y325330D01*
G01X311500Y325500D02*
Y330500D01*
X310740Y329500D01*
G01Y325500D02*
X312260D01*
G54D13*
G01X100000Y197500D02*
X80000D01*
G01D02*
Y187500D01*
G01D02*
X100000D01*
G01X67500Y337500D02*
X87500D01*
G01Y347500D02*
X67500D01*
G01D02*
Y337500D01*
G01X122500Y104000D02*
X102500D01*
G01D02*
Y94000D01*
G01D02*
X122500D01*
G01X100000Y187500D02*
Y197500D01*
G01X99000Y334000D02*
Y269500D01*
G01D02*
X141000D01*
G01X99000Y299000D02*
X141000D01*
G01X87500Y337500D02*
Y347500D01*
G01X141000Y334000D02*
X99000D01*
G01X122500Y94000D02*
Y104000D01*
G01X169000D02*
X149000D01*
G01D02*
Y94000D01*
G01D02*
X169000D01*
G01D02*
Y104000D01*
G01X141000Y269500D02*
Y334000D01*
G01X214500Y104000D02*
X194500D01*
G01D02*
Y94000D01*
G01D02*
X214500D01*
G01D02*
Y104000D01*
G01X211750Y167500D02*
Y127500D01*
G01D02*
X226750D01*
G01D02*
Y167500D01*
G01D02*
X211750D01*
G01Y165000D02*
X226750D01*
G01X211750Y237500D02*
Y202500D01*
G01D02*
X226750D01*
G01D02*
Y237500D01*
G01D02*
X211750D01*
G01X226750Y235000D02*
X211750D01*
G01X260000Y104000D02*
X240000D01*
G01D02*
Y94000D01*
G01D02*
X260000D01*
G01D02*
Y104000D01*
G01X304000D02*
X284000D01*
G01D02*
Y94000D01*
G01D02*
X304000D01*
G01D02*
Y104000D01*
G54D14*
G01X382440Y195000D02*
G03I-389J0D01*
G54D15*
G01X116250Y346500D02*
Y341130D01*
X116620Y340000D01*
X117370Y339250D01*
X118300Y339000D01*
X119230Y339250D01*
X119980Y340000D01*
X120350Y341130D01*
Y346500D01*
G01X123750Y340500D02*
X124310Y339620D01*
X125050Y339120D01*
X125890Y339000D01*
X126640Y339120D01*
X127390Y339750D01*
X127850Y340500D01*
X127950Y341250D01*
X127760Y342120D01*
X127110Y342750D01*
X126450Y343000D01*
X125610D01*
G01X126450D02*
X127010Y343370D01*
X127480Y344000D01*
X127670Y344750D01*
X127480Y345500D01*
X127010Y346120D01*
X126170Y346500D01*
X125330Y346380D01*
X124490Y345870D01*
G01X201750Y178500D02*
Y173130D01*
X202120Y172000D01*
X202870Y171250D01*
X203800Y171000D01*
X204730Y171250D01*
X205480Y172000D01*
X205850Y173130D01*
Y178500D01*
G01X211300Y171000D02*
Y178500D01*
X210180Y177000D01*
G01Y171000D02*
X212420D01*
G01X242250Y229500D02*
Y224130D01*
X242620Y223000D01*
X243370Y222250D01*
X244300Y222000D01*
X245230Y222250D01*
X245980Y223000D01*
X246350Y224130D01*
Y229500D01*
G01X250030Y228250D02*
X250590Y229000D01*
X251240Y229380D01*
X251990Y229500D01*
X252920Y229250D01*
X253570Y228620D01*
X253760Y227880D01*
X253670Y227120D01*
X253290Y226500D01*
X251430Y225250D01*
X250590Y224370D01*
X250030Y223120D01*
X249840Y222000D01*
X253760D01*
M02*
