G04 ================== begin FILE IDENTIFICATION RECORD ==================*
G04 Layout Name:  GroundBounce.brd*
G04 Film Name:    Ground_Bounce_v1_SMT*
G04 File Format:  Gerber RS274X*
G04 File Origin:  Cadence Allegro 17.4-S013*
G04 Origin Date:  Wed Jun  1 16:49:26 2022*
G04 *
G04 Layer:  VIA CLASS/SOLDERMASK_TOP*
G04 Layer:  PIN/SOLDERMASK_TOP*
G04 Layer:  BOARD GEOMETRY/SOLDERMASK_BOTTOM*
G04 *
G04 Offset:    (0.0 0.0)*
G04 Mirror:    No*
G04 Mode:      Positive*
G04 Rotation:  0*
G04 FullContactRelief:  No*
G04 UndefLineWidth:     0.0*
G04 ================== end FILE IDENTIFICATION RECORD ====================*
%FSLAX25Y25*MOIN*%
%IR0*IPPOS*OFA0.00000B0.00000*MIA0B0*SFA1.00000B1.00000*%
%ADD16C,.147*%
%ADD19R,.1457X.0669*%
%ADD10C,.05*%
%ADD17O,.086X.024*%
%ADD18R,.086X.024*%
%ADD15C,.075*%
%ADD13R,.05X.05*%
%ADD12C,.067*%
%ADD14R,.075X.075*%
%ADD11R,.067X.067*%
%LPD*%
G75*
G54D10*
X82500Y303000D03*
X85000Y182500D03*
X90000Y262500D03*
X118500Y110000D03*
X130000Y240000D03*
X154000Y112000D03*
X199500Y115500D03*
X183000Y192000D03*
X219000Y196500D03*
X205500Y192000D03*
X219000Y243000D03*
X245000Y114500D03*
X289000Y121000D03*
G54D11*
X82500Y342500D03*
X107500Y99000D03*
X85000Y192500D03*
X154000Y99000D03*
X199500D03*
X245000D03*
X289000D03*
G54D12*
X72500Y342500D03*
X95000Y192500D03*
X117500Y99000D03*
X164000D03*
X209500D03*
X255000D03*
X299000D03*
G54D13*
X100500Y170100D03*
X111000Y154000D03*
X100500Y178500D03*
X90000Y250000D03*
Y241600D03*
X111600Y240000D03*
X117500Y79000D03*
Y70600D03*
X120000Y170000D03*
X119400Y154000D03*
X120000Y178400D03*
Y240000D03*
X164000Y79000D03*
Y70600D03*
X209500Y79000D03*
Y70600D03*
X255000Y79000D03*
Y70600D03*
X232500Y175000D03*
X240900D03*
X232500Y245000D03*
X240900D03*
X299000Y79000D03*
Y70600D03*
X345000Y195000D03*
X353400D03*
G54D14*
X110000Y262500D03*
G54D15*
X120000D03*
X130000D03*
G54D16*
X120000Y322000D03*
G54D17*
X205000Y140000D03*
Y135000D03*
Y130000D03*
X233500D03*
Y135000D03*
Y140000D03*
X205000Y160000D03*
Y155000D03*
Y150000D03*
Y145000D03*
X233500D03*
Y150000D03*
Y155000D03*
Y160000D03*
Y165000D03*
X205000Y230000D03*
Y225000D03*
Y220000D03*
Y215000D03*
Y210000D03*
Y205000D03*
X233500D03*
Y210000D03*
Y215000D03*
Y220000D03*
Y225000D03*
Y230000D03*
Y235000D03*
G54D18*
X205000Y165000D03*
Y235000D03*
G54D19*
X391500Y184370D03*
Y195000D03*
Y205630D03*
M02*
