G04 ================== begin FILE IDENTIFICATION RECORD ==================*
G04 Layout Name:  GroundBounce.brd*
G04 Film Name:    Ground_Bounce_v1_MECH*
G04 File Format:  Gerber RS274X*
G04 File Origin:  Cadence Allegro 17.4-S013*
G04 Origin Date:  Wed Jun  1 16:49:26 2022*
G04 *
G04 Layer:  MANUFACTURING/NCLEGEND-1-2*
G04 Layer:  BOARD GEOMETRY/OUTLINE*
G04 Layer:  BOARD GEOMETRY/CUT_MARKS*
G04 *
G04 Offset:    (0.0 0.0)*
G04 Mirror:    No*
G04 Mode:      Positive*
G04 Rotation:  0*
G04 FullContactRelief:  No*
G04 UndefLineWidth:     0.0*
G04 ================== end FILE IDENTIFICATION RECORD ====================*
%FSLAX25Y25*MOIN*%
%IR0*IPPOS*OFA0.00000B0.00000*MIA0B0*SFA1.00000B1.00000*%
%AMMACRO10*
1,1,0.0,.01,0.0*
20,1,0.0,.01,0.0,-.01,0.0,0.0*
1,1,0.0,-.01,0.0*
1,1,0.0,0.0,.01*
20,1,0.0,0.0,.01,0.0,-.01,0.0*
1,1,0.0,0.0,-.01*
%
%ADD10MACRO10*%
%AMMACRO13*
1,1,0.0,.05905,0.0*
20,1,0.0,.05905,0.0,.058153,-.010254,0.0*
1,1,0.0,.058153,-.010254*
20,1,0.0,.058153,-.010254,.055489,-.020196,0.0*
1,1,0.0,.055489,-.020196*
20,1,0.0,.055489,-.020196,.051139,-.029525,0.0*
1,1,0.0,.051139,-.029525*
20,1,0.0,.051139,-.029525,.045235,-.037957,0.0*
1,1,0.0,.045235,-.037957*
20,1,0.0,.045235,-.037957,.037957,-.045235,0.0*
1,1,0.0,.037957,-.045235*
20,1,0.0,.037957,-.045235,.029525,-.051139,0.0*
1,1,0.0,.029525,-.051139*
20,1,0.0,.029525,-.051139,.020196,-.055489,0.0*
1,1,0.0,.020196,-.055489*
20,1,0.0,.020196,-.055489,.010254,-.058153,0.0*
1,1,0.0,.010254,-.058153*
20,1,0.0,.010254,-.058153,0.0,-.05905,0.0*
1,1,0.0,0.0,-.05905*
20,1,0.0,0.0,-.05905,-.010254,-.058153,0.0*
1,1,0.0,-.010254,-.058153*
20,1,0.0,-.010254,-.058153,-.020196,-.055489,0.0*
1,1,0.0,-.020196,-.055489*
20,1,0.0,-.020196,-.055489,-.029525,-.051139,0.0*
1,1,0.0,-.029525,-.051139*
20,1,0.0,-.029525,-.051139,-.037957,-.045235,0.0*
1,1,0.0,-.037957,-.045235*
20,1,0.0,-.037957,-.045235,-.045235,-.037957,0.0*
1,1,0.0,-.045235,-.037957*
20,1,0.0,-.045235,-.037957,-.051139,-.029525,0.0*
1,1,0.0,-.051139,-.029525*
20,1,0.0,-.051139,-.029525,-.055489,-.020196,0.0*
1,1,0.0,-.055489,-.020196*
20,1,0.0,-.055489,-.020196,-.058153,-.010254,0.0*
1,1,0.0,-.058153,-.010254*
20,1,0.0,-.058153,-.010254,-.05905,0.0,0.0*
1,1,0.0,-.05905,0.0*
20,1,0.0,-.05905,0.0,-.058153,.010254,0.0*
1,1,0.0,-.058153,.010254*
20,1,0.0,-.058153,.010254,-.055489,.020196,0.0*
1,1,0.0,-.055489,.020196*
20,1,0.0,-.055489,.020196,-.051139,.029525,0.0*
1,1,0.0,-.051139,.029525*
20,1,0.0,-.051139,.029525,-.045235,.037957,0.0*
1,1,0.0,-.045235,.037957*
20,1,0.0,-.045235,.037957,-.037957,.045235,0.0*
1,1,0.0,-.037957,.045235*
20,1,0.0,-.037957,.045235,-.029525,.051139,0.0*
1,1,0.0,-.029525,.051139*
20,1,0.0,-.029525,.051139,-.020196,.055489,0.0*
1,1,0.0,-.020196,.055489*
20,1,0.0,-.020196,.055489,-.010254,.058153,0.0*
1,1,0.0,-.010254,.058153*
20,1,0.0,-.010254,.058153,0.0,.05905,0.0*
1,1,0.0,0.0,.05905*
20,1,0.0,0.0,.05905,.010254,.058153,0.0*
1,1,0.0,.010254,.058153*
20,1,0.0,.010254,.058153,.020196,.055489,0.0*
1,1,0.0,.020196,.055489*
20,1,0.0,.020196,.055489,.029525,.051139,0.0*
1,1,0.0,.029525,.051139*
20,1,0.0,.029525,.051139,.037957,.045235,0.0*
1,1,0.0,.037957,.045235*
20,1,0.0,.037957,.045235,.045235,.037957,0.0*
1,1,0.0,.045235,.037957*
20,1,0.0,.045235,.037957,.051139,.029525,0.0*
1,1,0.0,.051139,.029525*
20,1,0.0,.051139,.029525,.055489,.020196,0.0*
1,1,0.0,.055489,.020196*
20,1,0.0,.055489,.020196,.058153,.010254,0.0*
1,1,0.0,.058153,.010254*
20,1,0.0,.058153,.010254,.05905,0.0,0.0*
1,1,0.0,.05905,0.0*
1,1,0.0,-.0246,-.0295*
20,1,0.0,-.0246,-.0295,0.0,.0295,0.0*
1,1,0.0,0.0,.0295*
20,1,0.0,0.0,.0295,.0246,-.0295,0.0*
1,1,0.0,.0246,-.0295*
1,1,0.0,.0157,-.0089*
20,1,0.0,.0157,-.0089,-.0157,-.0089,0.0*
1,1,0.0,-.0157,-.0089*
%
%ADD13MACRO13*%
%AMMACRO12*
1,1,0.0,.0276,0.0*
20,1,0.0,.0276,0.0,.027181,-.004793,0.0*
1,1,0.0,.027181,-.004793*
20,1,0.0,.027181,-.004793,.025936,-.00944,0.0*
1,1,0.0,.025936,-.00944*
20,1,0.0,.025936,-.00944,.023902,-.0138,0.0*
1,1,0.0,.023902,-.0138*
20,1,0.0,.023902,-.0138,.021143,-.017741,0.0*
1,1,0.0,.021143,-.017741*
20,1,0.0,.021143,-.017741,.017741,-.021143,0.0*
1,1,0.0,.017741,-.021143*
20,1,0.0,.017741,-.021143,.0138,-.023902,0.0*
1,1,0.0,.0138,-.023902*
20,1,0.0,.0138,-.023902,.00944,-.025936,0.0*
1,1,0.0,.00944,-.025936*
20,1,0.0,.00944,-.025936,.004793,-.027181,0.0*
1,1,0.0,.004793,-.027181*
20,1,0.0,.004793,-.027181,0.0,-.0276,0.0*
1,1,0.0,0.0,-.0276*
20,1,0.0,0.0,-.0276,-.004793,-.027181,0.0*
1,1,0.0,-.004793,-.027181*
20,1,0.0,-.004793,-.027181,-.00944,-.025936,0.0*
1,1,0.0,-.00944,-.025936*
20,1,0.0,-.00944,-.025936,-.0138,-.023902,0.0*
1,1,0.0,-.0138,-.023902*
20,1,0.0,-.0138,-.023902,-.017741,-.021143,0.0*
1,1,0.0,-.017741,-.021143*
20,1,0.0,-.017741,-.021143,-.021143,-.017741,0.0*
1,1,0.0,-.021143,-.017741*
20,1,0.0,-.021143,-.017741,-.023902,-.0138,0.0*
1,1,0.0,-.023902,-.0138*
20,1,0.0,-.023902,-.0138,-.025936,-.00944,0.0*
1,1,0.0,-.025936,-.00944*
20,1,0.0,-.025936,-.00944,-.027181,-.004793,0.0*
1,1,0.0,-.027181,-.004793*
20,1,0.0,-.027181,-.004793,-.0276,0.0,0.0*
1,1,0.0,-.0276,0.0*
20,1,0.0,-.0276,0.0,-.027181,.004793,0.0*
1,1,0.0,-.027181,.004793*
20,1,0.0,-.027181,.004793,-.025936,.00944,0.0*
1,1,0.0,-.025936,.00944*
20,1,0.0,-.025936,.00944,-.023902,.0138,0.0*
1,1,0.0,-.023902,.0138*
20,1,0.0,-.023902,.0138,-.021143,.017741,0.0*
1,1,0.0,-.021143,.017741*
20,1,0.0,-.021143,.017741,-.017741,.021143,0.0*
1,1,0.0,-.017741,.021143*
20,1,0.0,-.017741,.021143,-.0138,.023902,0.0*
1,1,0.0,-.0138,.023902*
20,1,0.0,-.0138,.023902,-.00944,.025936,0.0*
1,1,0.0,-.00944,.025936*
20,1,0.0,-.00944,.025936,-.004793,.027181,0.0*
1,1,0.0,-.004793,.027181*
20,1,0.0,-.004793,.027181,0.0,.0276,0.0*
1,1,0.0,0.0,.0276*
20,1,0.0,0.0,.0276,.004793,.027181,0.0*
1,1,0.0,.004793,.027181*
20,1,0.0,.004793,.027181,.00944,.025936,0.0*
1,1,0.0,.00944,.025936*
20,1,0.0,.00944,.025936,.0138,.023902,0.0*
1,1,0.0,.0138,.023902*
20,1,0.0,.0138,.023902,.017741,.021143,0.0*
1,1,0.0,.017741,.021143*
20,1,0.0,.017741,.021143,.021143,.017741,0.0*
1,1,0.0,.021143,.017741*
20,1,0.0,.021143,.017741,.023902,.0138,0.0*
1,1,0.0,.023902,.0138*
20,1,0.0,.023902,.0138,.025936,.00944,0.0*
1,1,0.0,.025936,.00944*
20,1,0.0,.025936,.00944,.027181,.004793,0.0*
1,1,0.0,.027181,.004793*
20,1,0.0,.027181,.004793,.0276,0.0,0.0*
1,1,0.0,.0276,0.0*
1,1,0.0,-.0115,-.0138*
20,1,0.0,-.0115,-.0138,0.0,.0138,0.0*
1,1,0.0,0.0,.0138*
20,1,0.0,0.0,.0138,.0115,-.0138,0.0*
1,1,0.0,.0115,-.0138*
1,1,0.0,.0074,-.0041*
20,1,0.0,.0074,-.0041,-.0074,-.0041,0.0*
1,1,0.0,-.0074,-.0041*
%
%ADD12MACRO12*%
%AMMACRO11*
1,1,0.0,.0246,0.0*
20,1,0.0,.0246,0.0,.024226,-.004272,0.0*
1,1,0.0,.024226,-.004272*
20,1,0.0,.024226,-.004272,.023116,-.008414,0.0*
1,1,0.0,.023116,-.008414*
20,1,0.0,.023116,-.008414,.021304,-.0123,0.0*
1,1,0.0,.021304,-.0123*
20,1,0.0,.021304,-.0123,.018845,-.015813,0.0*
1,1,0.0,.018845,-.015813*
20,1,0.0,.018845,-.015813,.015813,-.018845,0.0*
1,1,0.0,.015813,-.018845*
20,1,0.0,.015813,-.018845,.0123,-.021304,0.0*
1,1,0.0,.0123,-.021304*
20,1,0.0,.0123,-.021304,.008414,-.023116,0.0*
1,1,0.0,.008414,-.023116*
20,1,0.0,.008414,-.023116,.004272,-.024226,0.0*
1,1,0.0,.004272,-.024226*
20,1,0.0,.004272,-.024226,0.0,-.0246,0.0*
1,1,0.0,0.0,-.0246*
20,1,0.0,0.0,-.0246,-.004272,-.024226,0.0*
1,1,0.0,-.004272,-.024226*
20,1,0.0,-.004272,-.024226,-.008414,-.023116,0.0*
1,1,0.0,-.008414,-.023116*
20,1,0.0,-.008414,-.023116,-.0123,-.021304,0.0*
1,1,0.0,-.0123,-.021304*
20,1,0.0,-.0123,-.021304,-.015813,-.018845,0.0*
1,1,0.0,-.015813,-.018845*
20,1,0.0,-.015813,-.018845,-.018845,-.015813,0.0*
1,1,0.0,-.018845,-.015813*
20,1,0.0,-.018845,-.015813,-.021304,-.0123,0.0*
1,1,0.0,-.021304,-.0123*
20,1,0.0,-.021304,-.0123,-.023116,-.008414,0.0*
1,1,0.0,-.023116,-.008414*
20,1,0.0,-.023116,-.008414,-.024226,-.004272,0.0*
1,1,0.0,-.024226,-.004272*
20,1,0.0,-.024226,-.004272,-.0246,0.0,0.0*
1,1,0.0,-.0246,0.0*
20,1,0.0,-.0246,0.0,-.024226,.004272,0.0*
1,1,0.0,-.024226,.004272*
20,1,0.0,-.024226,.004272,-.023116,.008414,0.0*
1,1,0.0,-.023116,.008414*
20,1,0.0,-.023116,.008414,-.021304,.0123,0.0*
1,1,0.0,-.021304,.0123*
20,1,0.0,-.021304,.0123,-.018845,.015813,0.0*
1,1,0.0,-.018845,.015813*
20,1,0.0,-.018845,.015813,-.015813,.018845,0.0*
1,1,0.0,-.015813,.018845*
20,1,0.0,-.015813,.018845,-.0123,.021304,0.0*
1,1,0.0,-.0123,.021304*
20,1,0.0,-.0123,.021304,-.008414,.023116,0.0*
1,1,0.0,-.008414,.023116*
20,1,0.0,-.008414,.023116,-.004272,.024226,0.0*
1,1,0.0,-.004272,.024226*
20,1,0.0,-.004272,.024226,0.0,.0246,0.0*
1,1,0.0,0.0,.0246*
20,1,0.0,0.0,.0246,.004272,.024226,0.0*
1,1,0.0,.004272,.024226*
20,1,0.0,.004272,.024226,.008414,.023116,0.0*
1,1,0.0,.008414,.023116*
20,1,0.0,.008414,.023116,.0123,.021304,0.0*
1,1,0.0,.0123,.021304*
20,1,0.0,.0123,.021304,.015813,.018845,0.0*
1,1,0.0,.015813,.018845*
20,1,0.0,.015813,.018845,.018845,.015813,0.0*
1,1,0.0,.018845,.015813*
20,1,0.0,.018845,.015813,.021304,.0123,0.0*
1,1,0.0,.021304,.0123*
20,1,0.0,.021304,.0123,.023116,.008414,0.0*
1,1,0.0,.023116,.008414*
20,1,0.0,.023116,.008414,.024226,.004272,0.0*
1,1,0.0,.024226,.004272*
20,1,0.0,.024226,.004272,.0246,0.0,0.0*
1,1,0.0,.0246,0.0*
1,1,0.0,-.0103,-.0123*
20,1,0.0,-.0103,-.0123,0.0,.0123,0.0*
1,1,0.0,0.0,.0123*
20,1,0.0,0.0,.0123,.0103,-.0123,0.0*
1,1,0.0,.0103,-.0123*
1,1,0.0,.0066,-.0037*
20,1,0.0,.0066,-.0037,-.0066,-.0037,0.0*
1,1,0.0,-.0066,-.0037*
%
%ADD11MACRO11*%
%ADD14C,.05*%
G75*
%LPD*%
G75*
G54D10*
X82500Y303000D03*
X85000Y182500D03*
X90000Y262500D03*
X118500Y110000D03*
X130000Y240000D03*
X154000Y112000D03*
X199500Y115500D03*
X183000Y192000D03*
X219000Y196500D03*
X205500Y192000D03*
X219000Y243000D03*
X245000Y114500D03*
X289000Y121000D03*
X500950Y-17000D03*
G54D11*
X82500Y342500D03*
X72500D03*
X107500Y99000D03*
X85000Y192500D03*
X95000D03*
X117500Y99000D03*
X154000D03*
X164000D03*
X199500D03*
X209500D03*
X245000D03*
X255000D03*
X289000D03*
X299000D03*
X500950Y8000D03*
G54D12*
X110000Y262500D03*
X120000D03*
X130000D03*
X500950Y33000D03*
G54D13*
X120000Y322000D03*
X500950Y58000D03*
G54D14*
G01X-2500Y-2500D02*
X17500D01*
G01X-2500Y17500D02*
Y-2500D01*
G01X17500Y402500D02*
X-2500D01*
G01D02*
Y382500D01*
G01X382500Y-2500D02*
X402500D01*
G01D02*
Y17500D01*
G01Y382500D02*
Y402500D01*
G01D02*
X382500D01*
M02*
