M48
INCH,LZ
T01C.1181
T02C.0552
T03C.0492
T04C.02
;LEADER: 12 
;HEADER: 
;CODE  : ASCII 
;FILE  : NCdrill-1-2.drl for  ... layers TOP and BOTTOM
;DESIGN: GroundBounce.brd
;T01 Holesize 1. = 118.100000 Tolerance = +0.000000/-0.000000 PLATED MILS Quantity = 1
;T02 Holesize 2. = 55.200000 Tolerance = +0.000000/-0.000000 PLATED MILS Quantity = 3
;T03 Holesize 3. = 49.200000 Tolerance = +0.000000/-0.000000 PLATED MILS Quantity = 14
;T04 Holesize 4. = 20.000000 Tolerance = +0.000000/-0.000000 PLATED MILS Quantity = 13
%
G90
T01
X012Y0322
T02
X011Y02625
R02X001
T03
X01075Y0099
X01175Y0099
X0085Y01925
X0095Y01925
X00825Y03425
X00725Y03425
X0245Y0099
X0255Y0099
X0289Y0099
X0299Y0099
X0154Y0099
X0164Y0099
X01995Y0099
X02095Y0099
T04
X0183Y0192
X02055Y0192
X009Y02625
X00825Y0303
X01185Y011
X0154Y0112
X01995Y01155
X0245Y01145
X0289Y0121
X0085Y01825
X013Y024
X0219Y0243
X0219Y01965
M30
